<svg width="22" height="19" viewBox="0 0 371 320" fill="none" xmlns="http://www.w3.org/2000/svg">
  <g clip-path="url(#a)">
    <path d="m239.5 16.5-52 43-16.5-3-19-19-31-21L93 13l-20 6.5L48 23 32 37.5l-21.5 55 16.5 53L78.5 198l57.5 57.5 51.5 51.5 32.5-32 56.5-61.5L336 155l18.5-40.5v-41l-24-39-38.5-18h-52.5Z" fill="currentColor" stroke="#000"/>
    <path d="M342.317 164.814c38.245-37.768 38.245-99.094 0-136.488-38.247-37.768-100.347-37.768-138.594 0l-18.554 18.697L166.614 28.7C128.369-9.442 66.267-9.442 28.4 28.326 9.845 46.65 0 70.956 0 96.757c0 25.802 10.224 50.108 28.4 68.431L185.169 320l157.148-155.186ZM24.235 96.757c0-19.445 7.573-37.394 21.584-50.856 14.39-14.21 32.944-21.314 51.499-21.314 18.554 0 37.109 7.104 51.499 21.314l36.352 35.525 36.352-35.899c28.4-28.045 74.975-28.045 102.998 0 13.632 13.462 21.584 31.411 21.584 50.856s-7.574 37.394-21.584 50.856l-139.35 137.984-139.35-137.61c-13.632-13.836-21.584-31.785-21.584-50.856Z" fill="#000"/>
  </g>
</svg>
